<svg width="24" height="24" viewBox="0 0 24 24" fill="none" xmlns="http://www.w3.org/2000/svg">
<path fill-rule="evenodd" clip-rule="evenodd" d="M6.94695 4.08415C7.59544 4.07211 8.243 4.13859 8.87551 4.28215C9.40806 4.39842 9.91367 4.61478 10.3655 4.91973C10.7828 5.22296 11.1129 5.63063 11.3228 6.10181C11.5641 6.6812 11.6805 7.30495 11.6644 7.93235C11.6918 8.62125 11.5158 9.30299 11.1585 9.89259C10.7825 10.4495 10.2629 10.8942 9.65465 11.1796C10.4801 11.4021 11.199 11.9119 11.6822 12.6171C12.1461 13.3644 12.3792 14.2319 12.3525 15.111C12.3677 15.8119 12.2228 16.5071 11.9287 17.1435C11.6569 17.6987 11.2588 18.1825 10.7664 18.5562C10.2595 18.9259 9.68905 19.1994 9.08341 19.3631C8.45535 19.5369 7.80651 19.6241 7.15486 19.6225H0V4.08415H6.94695ZM6.53412 10.3688C7.04364 10.3898 7.54521 10.2373 7.95677 9.93615C8.15388 9.76068 8.30721 9.54154 8.4045 9.29623C8.5018 9.05093 8.54037 8.78626 8.51712 8.52339C8.53031 8.21637 8.46918 7.91071 8.33892 7.63238C8.22842 7.41077 8.05661 7.22556 7.84391 7.09876C7.62848 6.95918 7.38643 6.8658 7.13308 6.82452C6.85818 6.77127 6.57845 6.74705 6.29849 6.75225H3.24132V10.3826H6.53412V10.3688ZM6.71232 16.9841C7.02046 16.9883 7.32796 16.955 7.62809 16.8851C7.90236 16.8245 8.16247 16.7119 8.39436 16.5534C8.62153 16.395 8.80506 16.1819 8.92798 15.9337C9.0705 15.6172 9.13598 15.2715 9.11905 14.9249C9.14995 14.609 9.10811 14.2902 8.99674 13.993C8.88537 13.6957 8.70742 13.4279 8.47653 13.2101C7.98717 12.8497 7.38745 12.6712 6.78063 12.7052H3.24132V16.9841H6.71232Z" fill="black"/>
<path fill-rule="evenodd" clip-rule="evenodd" d="M16.9689 16.9266C17.2233 17.1624 17.523 17.344 17.8497 17.4604C18.1765 17.5768 18.5235 17.6256 18.8697 17.6038C19.4185 17.6176 19.9567 17.4507 20.4013 17.1286C20.7629 16.8934 21.0368 16.5454 21.1804 16.1385H23.7653C23.4899 17.2967 22.8173 18.3217 21.8645 19.0353C20.9504 19.642 19.8702 19.9493 18.7737 19.9145C17.9911 19.9247 17.2144 19.7776 16.4897 19.4818C15.8342 19.2085 15.2463 18.7952 14.7671 18.271C14.2897 17.7218 13.9229 17.0854 13.687 16.3969C13.4221 15.6274 13.2925 14.8178 13.3038 14.0041C13.299 13.2039 13.433 12.4091 13.6998 11.6547C14.0583 10.5936 14.7438 9.67321 15.6578 9.02579C16.5719 8.37836 17.6675 8.03714 18.7875 8.05108C19.6144 8.03379 20.4321 8.22731 21.1636 8.61341C21.8247 8.97595 22.3951 9.48369 22.8318 10.0984C23.2784 10.7435 23.5986 11.4675 23.7752 12.2319C23.969 13.0528 24.0381 13.8982 23.9802 14.7396H16.2808C16.2184 15.5302 16.4651 16.3142 16.9689 16.9266ZM20.3468 11.0172C20.1314 10.8017 19.8722 10.6348 19.5868 10.5279C19.3015 10.421 18.9965 10.3765 18.6925 10.3974C18.2892 10.382 17.8887 10.4714 17.5302 10.6568C17.246 10.8133 16.9951 11.0238 16.7917 11.2766C16.6114 11.5135 16.4771 11.7822 16.3957 12.0686C16.3223 12.3074 16.2765 12.5539 16.259 12.8032H21.0279C20.9864 12.1534 20.7497 11.5312 20.3488 11.0182L20.3468 11.0172Z" fill="black"/>
<path d="M15.6443 5.12163H21.62V6.64923H15.6443V5.12163Z" fill="black"/>
</svg>
